<svg width="32" height="32" viewBox="0 0 32 32" fill="none" xmlns="http://www.w3.org/2000/svg">
<path fill-rule="evenodd" clip-rule="evenodd" d="M22 10.9999L17.0001 15.9999L11.9999 10.9998L22 10.9999Z" fill="#0055FF"/>
<path d="M22.0001 19L26.0001 15L21.9997 10.9997L14 19L22.0001 19Z" fill="#00AAFF"/>
<path d="M22 18.9907L15 11L8.00003 11L8.00003 18.9907L22 18.9907Z" fill="#88DDFF"/>
<path fill-rule="evenodd" clip-rule="evenodd" d="M14.2434 19.0188L16.3288 17.6133L14.252 16.1953L16.3374 14.7898L14.2605 13.3718L12.1751 14.7772L10.0982 13.3592L8.01277 14.7647L10.0897 16.1827L8.00425 17.5882L10.0811 19.0062L12.1665 17.6008L14.2434 19.0188ZM12.1665 17.6008L10.0897 16.1827L12.1751 14.7772L14.252 16.1953L12.1665 17.6008Z" fill="#DAF8FE"/>
<path d="M14.2633 12.4306L12.1779 13.8361L10.101 12.418L12.1864 11.0126L14.2633 12.4306Z" fill="#DAF8FE"/>
</svg>
